<svg xmlns="http://www.w3.org/2000/svg" width="75" height="75" viewBox="0 0 75 75" fill="none">
                <rect x="0.563538" y="0.084198" width="73.0437" height="73.0055" rx="17" fill="none"/>
                <path d="M47.894 57.2485C41.1937 59.8036 36.1272 55.8319 35.7551 54.4328C35.2143 52.3998 36.7194 51.4339 37.0492 51.0739C41.5334 46.1795 46.9075 38.8953 47.4474 36.2852C47.8602 34.29 47.3083 34.1868 47.1503 34.4079C34.4124 53.808 18.9374 59.8061 16.8097 59.5623C14.6821 59.3185 15.0037 57.5898 15.0037 57.2485C14.9201 56.2666 16.0137 55.986 16.5709 55.9684C22.4961 55.7215 28.0634 51.8421 30.2116 49.8443C30.2615 49.798 30.2472 49.7178 30.1874 49.6854C22.2285 45.3699 18.6786 40.8776 22.2129 31.99C25.7652 23.0569 37.1536 17.1537 43.6315 16.1089C48.7089 15.29 53.2648 11.7964 55.0193 10.0504C55.0702 9.99978 55.1529 10.0151 55.1787 10.082C55.5543 11.0551 57.783 17.2055 58.9065 28.8411C60.1943 42.1779 57.0885 53.7423 47.894 57.2485Z" fill="white"/>
                <defs>
                    <linearGradient id="paint0_linear_521_5" x1="4.99823" y1="64.8921" x2="68.6717" y2="6.60896" gradientUnits="userSpaceOnUse">
                        <stop stop-color="#539B44"/>
                        <stop offset="1" stop-color="#7CB940"/>
                    </linearGradient>
                </defs>
            </svg>